<svg width="50" height="50" viewBox="0 0 50 50" fill="none" xmlns="http://www.w3.org/2000/svg">
<g clip-path="url(#clip0)">
<path fill-rule="evenodd" clip-rule="evenodd" d="M30.1633 11.4H19.8367C15.1772 11.4 11.4 15.1772 11.4 19.8367V30.1633C11.4 34.8227 15.1772 38.6 19.8367 38.6H30.1633C34.8227 38.6 38.6 34.8227 38.6 30.1633V19.8367C38.6 15.1772 34.8227 11.4 30.1633 11.4ZM19.8367 7.5C13.0233 7.5 7.5 13.0233 7.5 19.8367V30.1633C7.5 36.9766 13.0233 42.5 19.8367 42.5H30.1633C36.9766 42.5 42.5 36.9766 42.5 30.1633V19.8367C42.5 13.0233 36.9766 7.5 30.1633 7.5H19.8367ZM35.85 16.25C35.85 17.4098 34.9098 18.35 33.75 18.35C32.5902 18.35 31.65 17.4098 31.65 16.25C31.65 15.0902 32.5902 14.15 33.75 14.15C34.9098 14.15 35.85 15.0902 35.85 16.25ZM29.85 25C29.85 27.6786 27.6786 29.85 25 29.85C22.3214 29.85 20.15 27.6786 20.15 25C20.15 22.3214 22.3214 20.15 25 20.15C27.6786 20.15 29.85 22.3214 29.85 25ZM33.75 25C33.75 29.8325 29.8325 33.75 25 33.75C20.1675 33.75 16.25 29.8325 16.25 25C16.25 20.1675 20.1675 16.25 25 16.25C29.8325 16.25 33.75 20.1675 33.75 25Z" fill="#C4C4C4"/>
<mask id="path-3-inside-1" fill="white">
<rect width="50" height="50" rx="3.675"/>
</mask>
<rect width="50" height="50" rx="3.675" stroke="#C4C4C4" stroke-width="8.81999" mask="url(#path-3-inside-1)"/>
</g>
<defs>
<clipPath id="clip0">
<path d="M0 0H50V50H0V0Z" fill="white"/>
</clipPath>
</defs>
</svg>
