<svg width="100" height="100" viewBox="0 0 100 100" fill="none" xmlns="http://www.w3.org/2000/svg">
<path fill-rule="evenodd" clip-rule="evenodd" d="M50 100C77.6143 100 100 77.6143 100 50C100 45.7407 99.4674 41.6059 98.4653 37.6583C98.5641 38.1449 98.6579 38.6638 98.7604 39.2562C96.4549 40.4758 95.2421 40.8243 92.7898 41.5289L92.7884 41.5293C92.4218 41.6347 92.0276 41.7479 91.5979 41.8733C90.5378 42.1825 88.0827 44.7463 84.7888 48.186L84.7888 48.1861C77.8113 55.4726 67.07 66.6898 57.8513 68.7328C46.4381 71.2474 36.2259 66.6667 32.7824 58.4022C29.3389 50.1377 29.4751 45.0116 31.2673 35.8127C41.0491 38.5552 46.2824 38.4937 55.2342 35.8127C58.3932 40.2933 57.9135 46.8134 57.6577 50.2893L57.6577 50.2894C57.5885 51.2299 57.5357 51.9475 57.5758 52.3416C57.7642 54.192 70.8667 50.7163 77.8238 45.4545L78.4763 44.967C85.6465 39.6098 89.8668 36.4565 97.3499 33.8956C90.6472 14.1826 71.9799 0 50 0C22.3858 0 0 22.3858 0 50C0 77.6143 22.3858 100 50 100ZM36.3636 13.0854C31.383 11.6327 32.6149 10.6243 37.8787 8.67768C40.7221 8.83048 42.0655 8.70459 43.3884 7.57575L47.6584 9.0909C48.4794 9.09214 48.7092 9.26745 48.4848 10.0551C48.7947 11.3169 49.2512 11.9075 51.1019 12.5344C56.308 13.5231 54.4568 14.813 49.5867 17.3554C49.1305 17.6457 48.6812 17.9126 48.2556 18.1654L48.2554 18.1656C46.1401 19.4221 44.6112 20.3304 45.73 22.0386C46.8013 23.0033 46.6012 23.4601 44.628 24.1047C42.1857 24.5057 42.0272 26.7677 42.8374 32.6446C43.0493 34.4775 42.9287 35.2281 40.6336 34.1598C38.3466 33.3926 37.6131 32.0813 37.3278 28.0992C37.4257 27.1406 37.5454 26.2164 37.658 25.3465C38.087 22.0328 38.4141 19.5065 37.0523 18.8705C35.959 17.6573 35.8224 16.91 36.6391 15.427L36.6824 15.3557C37.4751 14.0521 37.9328 13.2995 36.3636 13.0854Z" fill="url(#paint0_linear)"/>
<defs>
<linearGradient id="paint0_linear" x1="0" y1="0" x2="100" y2="100" gradientUnits="userSpaceOnUse">
<stop stop-color="white"/>
<stop offset="1" stop-color="white" stop-opacity="0"/>
<stop offset="1" stop-color="white" stop-opacity="0"/>
</linearGradient>
</defs>
</svg>
