<svg width="276" height="100" viewBox="0 0 276 100" fill="none" xmlns="http://www.w3.org/2000/svg">
<circle cx="52" cy="50" r="50" fill="url(#paint0_linear)"/>
<path fill-rule="evenodd" clip-rule="evenodd" d="M21.1347 25.777C16.381 28.6012 15.3671 29.7979 20.4519 30.318C22.0106 30.2458 21.7012 31.0566 21.1654 32.4611C21.1557 32.4865 21.1459 32.512 21.1361 32.5378C20.609 34.1203 20.8745 34.8202 22.1501 35.8009C23.583 36.1745 23.7162 38.6807 23.891 41.968C23.9368 42.831 23.9856 43.7479 24.0614 44.6941C25.0474 48.5019 25.9919 49.6418 28.3446 49.9777C30.7589 50.6039 30.742 49.8551 30.2101 48.1168C28.3778 42.5666 28.1283 40.3465 30.4235 39.5228C32.2206 38.5466 32.333 38.0684 31.1231 37.3244C29.7346 35.8686 31.0543 34.716 32.88 33.1216C33.2474 32.8007 33.6352 32.462 34.0257 32.0993C38.2916 28.768 39.8556 27.1883 34.6348 27.158C32.7298 26.8803 32.1823 26.3893 31.6571 25.2219C31.7342 24.4187 31.4803 24.2898 30.6845 24.4348L26.277 23.7276C25.1964 25.0571 23.917 25.4185 21.1347 25.777ZM83.2842 39.5988C84.3922 41.4888 84.8484 42.5848 85.5761 44.5586C83.5595 46.1512 82.4464 46.705 80.1957 47.8247C79.8589 47.9923 79.4967 48.1725 79.1021 48.3708C78.13 48.8593 76.2079 51.781 73.6291 55.701C68.1665 64.0048 59.7572 76.7878 51.1885 80.4101C40.5775 84.8803 29.8659 82.2614 25.0567 74.8669C20.2474 67.4724 19.4659 62.4811 19.5634 53.2482C29.5304 54.1626 34.5904 53.1706 42.7868 48.9777C46.6461 52.7564 47.343 59.1597 47.7146 62.5734C47.8151 63.497 47.8918 64.2018 48.0009 64.5765C48.5132 66.336 60.5898 60.6335 66.3935 54.2953C66.5776 54.0966 66.7594 53.9004 66.939 53.7066C72.9409 47.2284 76.47 43.4193 83.2842 39.5988Z" fill="black"/>
<path d="M100.227 52.3448C102.039 52.7389 103.432 53.5271 104.404 54.7094C105.402 55.8654 105.901 57.3629 105.901 59.202C105.901 61.5665 105.021 63.3925 103.261 64.6798C101.527 65.9409 98.9524 66.5714 95.5369 66.5714H82.8473V38.9852H94.7488C97.8227 38.9852 100.2 39.6026 101.882 40.8374C103.589 42.0723 104.443 43.8194 104.443 46.0788C104.443 47.6026 104.062 48.9031 103.3 49.9803C102.565 51.0312 101.54 51.8194 100.227 52.3448ZM85.7635 41.3892V51.399H94.5517C96.7849 51.399 98.5057 50.9787 99.7143 50.1379C100.923 49.2709 101.527 48.023 101.527 46.3941C101.527 44.7652 100.923 43.5304 99.7143 42.6897C98.5057 41.8227 96.7849 41.3892 94.5517 41.3892H85.7635ZM95.4975 64.1675C97.9672 64.1675 99.8325 63.7471 101.094 62.9064C102.355 62.0657 102.985 60.7521 102.985 58.9655C102.985 55.5238 100.489 53.803 95.4975 53.803H85.7635V64.1675H95.4975ZM111.967 37.3301H114.765V66.5714H111.967V37.3301ZM129.801 45.6847C132.507 45.6847 134.583 46.3678 136.028 47.734C137.473 49.0739 138.195 51.0706 138.195 53.7242V66.5714H135.516V63.3399C134.885 64.4171 133.952 65.2578 132.718 65.8621C131.509 66.4664 130.064 66.7685 128.383 66.7685C126.071 66.7685 124.232 66.2168 122.865 65.1133C121.499 64.0099 120.816 62.5517 120.816 60.7389C120.816 58.9787 121.447 57.5599 122.708 56.4828C123.995 55.4056 126.031 54.867 128.816 54.867H135.397V53.6059C135.397 51.8194 134.898 50.4664 133.9 49.5468C132.902 48.601 131.443 48.1281 129.526 48.1281C128.212 48.1281 126.951 48.3514 125.742 48.798C124.534 49.2184 123.496 49.8095 122.629 50.5714L121.368 48.4828C122.419 47.5895 123.68 46.9064 125.151 46.4335C126.622 45.9343 128.173 45.6847 129.801 45.6847ZM128.816 64.5616C130.393 64.5616 131.746 64.2069 132.875 63.4975C134.005 62.7619 134.846 61.711 135.397 60.3448V56.9557H128.895C125.348 56.9557 123.575 58.1905 123.575 60.6601C123.575 61.8687 124.035 62.8276 124.954 63.537C125.874 64.22 127.161 64.5616 128.816 64.5616ZM154.463 66.7685C152.414 66.7685 150.575 66.3219 148.946 65.4286C147.343 64.5353 146.082 63.2874 145.163 61.6847C144.243 60.0558 143.784 58.2299 143.784 56.2069C143.784 54.1839 144.243 52.3711 145.163 50.7685C146.082 49.1659 147.343 47.9179 148.946 47.0246C150.575 46.1314 152.414 45.6847 154.463 45.6847C156.25 45.6847 157.839 46.0394 159.232 46.7488C160.651 47.4319 161.767 48.4434 162.582 49.7833L160.493 51.202C159.81 50.1774 158.943 49.4154 157.892 48.9163C156.841 48.3908 155.698 48.1281 154.463 48.1281C152.966 48.1281 151.613 48.4696 150.404 49.1527C149.222 49.8095 148.289 50.7553 147.606 51.9902C146.949 53.225 146.621 54.6306 146.621 56.2069C146.621 57.8095 146.949 59.2283 147.606 60.4631C148.289 61.6716 149.222 62.6174 150.404 63.3005C151.613 63.9573 152.966 64.2857 154.463 64.2857C155.698 64.2857 156.841 64.0361 157.892 63.537C158.943 63.0378 159.81 62.2759 160.493 61.2512L162.582 62.67C161.767 64.0099 160.651 65.0345 159.232 65.7439C157.813 66.4269 156.224 66.7685 154.463 66.7685ZM175.455 56.1675L170.568 60.6601V66.5714H167.77V37.3301H170.568V57.1527L182.943 45.8424H186.411L177.544 54.3153L187.238 66.5714H183.81L175.455 56.1675ZM202.355 38.9852C205.876 38.9852 208.634 39.826 210.631 41.5074C212.628 43.1888 213.626 45.5008 213.626 48.4434C213.626 51.3859 212.628 53.6979 210.631 55.3793C208.634 57.0345 205.876 57.8621 202.355 57.8621H194.946V66.5714H192.03V38.9852H202.355ZM202.276 55.3005C205.009 55.3005 207.097 54.7094 208.542 53.5271C209.987 52.3186 210.71 50.624 210.71 48.4434C210.71 46.2102 209.987 44.5025 208.542 43.3202C207.097 42.1117 205.009 41.5074 202.276 41.5074H194.946V55.3005H202.276ZM218.802 45.8424H221.6V66.5714H218.802V45.8424ZM220.22 41.3104C219.642 41.3104 219.156 41.1133 218.762 40.7192C218.368 40.3251 218.171 39.8522 218.171 39.3005C218.171 38.7751 218.368 38.3153 218.762 37.9212C219.156 37.5271 219.642 37.3301 220.22 37.3301C220.798 37.3301 221.284 37.5271 221.679 37.9212C222.073 38.289 222.27 38.7356 222.27 39.2611C222.27 39.8391 222.073 40.3251 221.679 40.7192C221.284 41.1133 220.798 41.3104 220.22 41.3104ZM240.065 45.6847C242.009 45.6847 243.769 46.1314 245.346 47.0246C246.922 47.8916 248.157 49.1264 249.05 50.7291C249.943 52.3317 250.39 54.1576 250.39 56.2069C250.39 58.2824 249.943 60.1215 249.05 61.7242C248.157 63.3268 246.922 64.5747 245.346 65.468C243.796 66.335 242.035 66.7685 240.065 66.7685C238.384 66.7685 236.86 66.4269 235.494 65.7439C234.154 65.0345 233.05 64.0099 232.183 62.67V74.2168H229.385V45.8424H232.065V49.9409C232.906 48.5747 234.009 47.5238 235.375 46.7882C236.768 46.0526 238.331 45.6847 240.065 45.6847ZM239.868 64.2857C241.313 64.2857 242.627 63.9573 243.809 63.3005C244.991 62.6174 245.911 61.6585 246.567 60.4237C247.251 59.1888 247.592 57.7833 247.592 56.2069C247.592 54.6306 247.251 53.2381 246.567 52.0296C245.911 50.7948 244.991 49.8358 243.809 49.1527C242.627 48.4696 241.313 48.1281 239.868 48.1281C238.397 48.1281 237.07 48.4696 235.888 49.1527C234.732 49.8358 233.812 50.7948 233.129 52.0296C232.472 53.2381 232.144 54.6306 232.144 56.2069C232.144 57.7833 232.472 59.1888 233.129 60.4237C233.812 61.6585 234.732 62.6174 235.888 63.3005C237.07 63.9573 238.397 64.2857 239.868 64.2857ZM274.143 57.0739H256.803C256.961 59.2283 257.788 60.9754 259.286 62.3153C260.784 63.6289 262.675 64.2857 264.961 64.2857C266.248 64.2857 267.431 64.0624 268.508 63.6158C269.585 63.1429 270.518 62.4598 271.306 61.5665L272.882 63.3793C271.963 64.4828 270.807 65.3235 269.414 65.9015C268.048 66.4795 266.537 66.7685 264.882 66.7685C262.754 66.7685 260.862 66.3219 259.207 65.4286C257.578 64.509 256.304 63.248 255.385 61.6453C254.465 60.0427 254.005 58.2299 254.005 56.2069C254.005 54.1839 254.439 52.3711 255.306 50.7685C256.199 49.1659 257.408 47.9179 258.931 47.0246C260.481 46.1314 262.215 45.6847 264.133 45.6847C266.051 45.6847 267.772 46.1314 269.296 47.0246C270.82 47.9179 272.015 49.1659 272.882 50.7685C273.749 52.3448 274.183 54.1576 274.183 56.2069L274.143 57.0739ZM264.133 48.0887C262.137 48.0887 260.455 48.7324 259.089 50.0197C257.749 51.2808 256.987 52.936 256.803 54.9852H271.503C271.319 52.936 270.544 51.2808 269.178 50.0197C267.838 48.7324 266.156 48.0887 264.133 48.0887Z" fill="white"/>
<defs>
<linearGradient id="paint0_linear" x1="2" y1="0" x2="102" y2="100" gradientUnits="userSpaceOnUse">
<stop stop-color="#C4C4C4"/>
<stop offset="1"/>
</linearGradient>
</defs>
</svg>
