<svg width="50" height="50" viewBox="0 0 50 50" fill="none" xmlns="http://www.w3.org/2000/svg">
<mask id="path-2-inside-1" fill="white">
<rect width="50" height="50" rx="3.675"/>
</mask>
<rect width="50" height="50" rx="3.675" stroke="#C4C4C4" stroke-width="8.82" mask="url(#path-2-inside-1)"/>
<path d="M44 13.6078C42.6203 14.2203 41.1375 14.6328 39.5813 14.8187C41.1703 13.8672 42.3906 12.3594 42.9641 10.5625C41.4781 11.4438 39.8312 12.0844 38.0781 12.4297C36.6766 10.9344 34.675 10 32.4625 10C27.4953 10 23.8453 14.6344 24.9672 19.4453C18.575 19.125 12.9062 16.0625 9.11094 11.4078C7.09531 14.8656 8.06563 19.3891 11.4906 21.6797C10.2313 21.6391 9.04375 21.2938 8.00781 20.7172C7.92344 24.2812 10.4781 27.6156 14.1781 28.3578C13.0953 28.6516 11.9094 28.7203 10.7031 28.4891C11.6813 31.5453 14.5219 33.7687 17.8906 33.8312C14.6562 36.3672 10.5813 37.5 6.5 37.0188C9.90469 39.2016 13.95 40.475 18.2937 40.475C32.5781 40.475 40.6484 28.4109 40.1609 17.5906C41.6641 16.5047 42.9688 15.15 44 13.6078Z" fill="#C4C4C4"/>
</svg>
